<svg width="540" height="71" viewBox="0 0 540 71" fill="none" xmlns="http://www.w3.org/2000/svg">
<path d="M0.95 28.466C0.95 32.522 1.886 36.344 3.68 39.854C10.544 53.192 27.314 57.326 41.198 57.326C52.976 57.326 64.754 55.22 73.412 46.562L75.44 44.69L56.876 37.826L56.174 38.84C52.742 43.286 46.814 44.378 41.432 44.378C30.98 44.378 22.166 39.542 22.166 28.076C22.868 16.844 31.916 13.022 41.744 13.022C47.282 13.022 52.976 13.958 56.642 18.56L57.422 19.496L75.44 12.866L73.958 10.994C73.88 10.838 73.802 10.76 73.646 10.682C65.69 2.648 52.976 0.0739994 42.056 0.0739994C28.328 0.0739994 11.168 4.364 3.914 17.312C1.964 20.744 0.95 24.566 0.95 28.466ZM100.331 56V38.372C100.409 36.89 100.565 35.486 100.799 34.004C101.579 28.934 108.833 27.218 113.279 27.218C114.995 27.218 116.711 27.374 118.427 27.53L120.299 27.764V14.738H118.661C118.661 14.738 118.505 14.738 118.349 14.738C118.193 14.738 117.959 14.738 117.725 14.66C117.101 14.66 116.477 14.582 115.853 14.582C109.223 14.582 103.217 16.142 98.4591 20.822L96.1971 15.44H80.9091V56H100.331ZM135.515 67.31C137.777 68.246 140.117 68.87 142.457 69.338C142.691 69.338 142.925 69.416 143.081 69.416C146.435 70.04 149.789 70.274 153.221 70.274C164.609 70.274 182.939 66.608 183.017 52.022L183.173 49.76V15.44H163.907V33.458C163.907 40.946 160.475 42.584 153.845 42.974C146.357 43.052 144.875 38.606 144.719 34.55V15.44H125.453V38.528C125.453 47.654 129.509 51.554 137.777 53.816C140.819 54.596 144.095 54.986 147.293 54.986C153.455 54.986 158.915 53.972 164.219 50.696V51.71C164.219 53.894 163.829 55.22 162.035 56.624C160.475 57.95 157.901 58.964 153.533 58.886C149.321 58.886 141.755 57.482 138.869 54.596L124.361 60.056C124.361 60.056 129.431 64.58 135.515 67.31ZM191.663 15.44V70.274H211.085V53.192C215.531 56.078 222.161 57.092 227.309 57.092C240.491 57.092 254.375 50.618 254.375 35.954C254.375 20.822 239.789 14.348 226.763 14.348C220.211 14.348 214.751 15.44 209.369 19.184L207.809 15.44H191.663ZM222.629 26.048C229.103 26.048 234.797 28.544 234.719 35.876C234.719 43.13 229.103 45.548 222.863 45.548C216.389 45.548 210.617 42.974 210.539 35.876C210.539 28.544 216.311 26.048 222.629 26.048ZM263.477 25.736V43.52C263.477 55.532 273.617 56.312 282.899 56.312C286.331 56.312 289.763 56.312 293.195 56.078L295.067 55.922L292.805 44.846L291.401 44.924C290.231 45.002 289.139 45.002 287.969 45.002C286.955 45.002 284.849 45.002 283.913 44.534C283.367 44.3 282.899 43.832 282.899 43.208V43.052C282.977 42.584 282.977 42.038 282.977 41.492V25.736H294.365V15.362H282.977V4.13H263.477V15.362H258.485V25.736H263.477ZM299.546 28.7C299.546 32.834 300.56 36.734 302.51 40.244C309.686 53.27 326.846 57.326 340.652 57.326C347.048 57.326 353.522 56.624 359.684 54.596L371.306 61.538L383.006 53.504L372.866 47.654C378.716 42.662 382.07 36.422 382.07 28.622C382.07 14.504 370.526 5.846 358.124 2.258C353.132 0.776 347.438 0.0739994 341.12 0.0739994C323.258 0.0739994 299.546 7.328 299.546 28.7ZM320.918 28.544C320.918 17.156 331.058 12.71 340.886 12.71C350.948 12.71 360.542 17.468 360.62 28.466C360.62 31.664 359.528 36.266 357.188 38.606L348.062 33.38L337.142 41.18L342.758 44.612C342.212 44.612 341.744 44.612 341.12 44.612C330.59 44.612 320.918 40.166 320.918 28.544ZM388.935 15.44V40.634C388.935 49.76 393.069 53.66 401.259 55.844C404.379 56.702 407.577 57.092 410.775 57.092C417.483 57.092 423.255 56 428.715 51.944L430.041 56H446.655V15.44H427.389V35.564C427.389 43.052 423.957 44.612 417.405 45.08C409.839 45.08 408.435 40.712 408.201 36.656V15.44H388.935ZM474.716 56V15.44H455.294V56H474.716ZM455.294 5.924V8.81C455.294 12.008 458.804 13.412 461.456 13.334H468.476C471.206 13.412 474.716 12.008 474.716 8.81V5.924C474.716 2.804 471.128 1.4 468.476 1.4H461.456C458.882 1.4 455.294 2.882 455.294 5.924ZM508.363 45.002L537.535 24.956V15.44H484.105V26.282H510.859L481.219 45.938V56H539.173V45.002H508.363Z" fill="white" fill-opacity="0.8"/>
</svg>
